<svg id="Capa_1" enable-background="new 0 0 482.224 482.224" height="512" viewBox="0 0 482.224 482.224" width="512" xmlns="http://www.w3.org/2000/svg"><path d="m300.905 2.02c-5.601-2.977-12.429-2.641-17.677.858l-150.666 100.444h-80.9c-9.52 0-17.223 7.703-17.223 17.223v241.119c0 9.52 7.703 17.223 17.223 17.223h80.9l150.666 100.444c2.876 1.917 6.206 2.893 9.553 2.893 2.792 0 5.584-.673 8.124-2.035 5.601-2.994 9.099-8.83 9.099-15.188v-447.793c0-6.358-3.499-12.194-9.099-15.188zm-25.347 430.805-128.229-85.492c-2.826-1.884-6.156-2.893-9.553-2.893h-68.892v-206.674h68.891c3.397 0 6.728-1.009 9.553-2.893l128.229-85.492v383.444z"/><path d="m402.336 131.549-24.35 24.35c21.831 21.831 35.354 51.971 35.354 85.206s-13.523 63.374-35.354 85.206l24.35 24.35c28.067-28.067 45.45-66.818 45.45-109.556s-17.383-81.489-45.45-109.556z"/></svg>